<?xml version="1.0" encoding="UTF-8" standalone="no"?>
<!DOCTYPE svg PUBLIC "-//W3C//DTD SVG 1.1//EN" "http://www.w3.org/Graphics/SVG/1.1/DTD/svg11.dtd">
<svg version="1.1" xmlns="http://www.w3.org/2000/svg" xmlns:xlink="http://www.w3.org/1999/xlink" preserveAspectRatio="xMidYMid meet" viewBox="233.55373914992907 217.40428118128966 175.0160296596256 199.1505553312851" width="171.02" height="195.15"><defs><path d="M376.02 227.41C426.24 250.29 309.18 245.48 286.31 295.7C263.43 345.93 343.34 432.3 293.12 409.42C242.89 386.54 220.68 327.19 243.56 276.97C266.44 226.74 325.79 204.54 376.02 227.41Z" id="b3aalYc8n"></path><path d="M391.14 293.29C422.91 319.11 339.13 292.55 313.31 324.32C287.48 356.09 329.33 434.23 297.56 408.41C265.79 382.58 260.97 335.82 286.79 304.06C312.62 272.29 359.38 267.46 391.14 293.29Z" id="f15X551ShZ"></path><path d="M403.29 362.43C416.79 394.75 367.14 342.36 339.02 354.11C310.89 365.86 314.87 437.33 301.36 405C287.86 372.68 299.74 336.9 327.86 325.15C355.99 313.4 389.79 330.11 403.29 362.43Z" id="c19LHtFw1O"></path></defs><g><g><use xlink:href="#b3aalYc8n" opacity="1" fill="#6b56c6" fill-opacity="1"></use></g><g><use xlink:href="#f15X551ShZ" opacity="1" fill="#321e87" fill-opacity="1"></use></g><g><use xlink:href="#c19LHtFw1O" opacity="1" fill="#0f0f0f" fill-opacity="1"></use></g></g></svg>